<svg width="24" height="24" viewBox="0 0 24 24" fill="none" xmlns="http://www.w3.org/2000/svg">
  <path d="M12 8.75C10.21 8.75 8.75 10.21 8.75 12C8.75 13.79 10.21 15.25 12 15.25C13.79 15.25 15.25 13.79 15.25 12C15.25 10.21 13.79 8.75 12 8.75Z" stroke="#111111" stroke-width="1.8"/>
  <path d="M18.02 13.28L18.16 12L18.02 10.72L19.54 9.53C19.73 9.38 19.79 9.11 19.67 8.89L18.23 6.41C18.11 6.19 17.84 6.1 17.6 6.17L15.71 6.72C15.04 6.19 14.26 5.79 13.41 5.56L13 3.63C12.95 3.38 12.73 3.2 12.47 3.2H11.53C11.27 3.2 11.05 3.38 11 3.63L10.59 5.56C9.74 5.79 8.96 6.19 8.29 6.72L6.4 6.17C6.16 6.1 5.89 6.19 5.77 6.41L4.33 8.89C4.21 9.11 4.27 9.38 4.46 9.53L5.98 10.72L5.84 12L5.98 13.28L4.46 14.47C4.27 14.62 4.21 14.89 4.33 15.11L5.77 17.59C5.89 17.81 6.16 17.9 6.4 17.83L8.29 17.28C8.96 17.81 9.74 18.21 10.59 18.44L11 20.37C11.05 20.62 11.27 20.8 11.53 20.8H12.47C12.73 20.8 12.95 20.62 13 20.37L13.41 18.44C14.26 18.21 15.04 17.81 15.71 17.28L17.6 17.83C17.84 17.9 18.11 17.81 18.23 17.59L19.67 15.11C19.79 14.89 19.73 14.62 19.54 14.47L18.02 13.28Z" stroke="#111111" stroke-width="1.5" stroke-linejoin="round"/>
</svg>
