<svg width="24" height="24" viewBox="0 0 24 24" fill="none" xmlns="http://www.w3.org/2000/svg">
  <rect x="3.5" y="6" width="17" height="12" rx="3" stroke="#111111" stroke-width="1.8"/>
  <path d="M3.5 10C4.88071 10 6 8.88071 6 7.5V7.25C6 8.63071 7.11929 9.75 8.5 9.75C9.88071 9.75 11 8.63071 11 7.25C11 8.63071 12.1193 9.75 13.5 9.75C14.8807 9.75 16 8.63071 16 7.25C16 8.63071 17.1193 9.75 18.5 9.75C19.8807 9.75 21 8.63071 21 7.25V7.5C21 8.88071 19.8807 10 18.5 10" stroke="#111111" stroke-width="1.8" stroke-linecap="round" stroke-linejoin="round"/>
  <path d="M12 12V15.5" stroke="#111111" stroke-width="1.8" stroke-linecap="round"/>
  <path d="M10.25 13.75H13.75" stroke="#111111" stroke-width="1.8" stroke-linecap="round"/>
</svg>
